<svg width="60" height="60" viewBox="0 0 60 60" fill="none" xmlns="http://www.w3.org/2000/svg">
<path d="M3.64502 30.4275L27.2325 6.81997C27.5819 6.47264 27.9963 6.19757 28.4521 6.01046C28.9078 5.82336 29.396 5.72789 29.8886 5.72951C30.3813 5.73114 30.8688 5.82982 31.3233 6.01993C31.7778 6.21004 32.1904 6.48784 32.5375 6.83747L56.145 30.4275" stroke="black" stroke-width="5" stroke-linecap="round" stroke-linejoin="round"/>
<path d="M48.645 22.9325V52.9275H11.145V22.92" stroke="black" stroke-width="5" stroke-linecap="round" stroke-linejoin="round"/>
<path d="M37.395 52.9274V41.6774C37.395 39.6883 36.6048 37.7807 35.1983 36.3741C33.7918 34.9676 31.8841 34.1774 29.895 34.1774C27.9059 34.1774 25.9982 34.9676 24.5917 36.3741C23.1852 37.7807 22.395 39.6883 22.395 41.6774V52.9274" stroke="black" stroke-width="5" stroke-linecap="round" stroke-linejoin="round"/>
</svg>
